<!DOCTYPE svg PUBLIC "-//W3C//DTD SVG 1.1//EN" "http://www.w3.org/Graphics/SVG/1.1/DTD/svg11.dtd">
<!-- Uploaded to: SVG Repo, www.svgrepo.com, Transformed by: SVG Repo Mixer Tools -->
<svg width="800px" height="800px" viewBox="0 0 24 24" xmlns:rdf="http://www.w3.org/1999/02/22-rdf-syntax-ns#" xmlns="http://www.w3.org/2000/svg" version="1.1" xmlns:cc="http://creativecommons.org/ns#" xmlns:dc="http://purl.org/dc/elements/1.1/" fill="#000000">
<g id="SVGRepo_bgCarrier" stroke-width="0"/>
<g id="SVGRepo_tracerCarrier" stroke-linecap="round" stroke-linejoin="round" stroke="#CCCCCC" stroke-width="0.048"/>
<g id="SVGRepo_iconCarrier"> <g transform="translate(0 -1028.4)"> <path d="m2 4v13.531 2.469c0 1.105 0.8954 2 2 2h4 8l6-6v-12h-20z" transform="translate(0 1028.4)" fill="#7521ca"/> <path d="m22 1044.4-6 6v-4c0-1.1 0.895-2 2-2h4z" fill="#ffffff"/> <path d="m4 2c-1.1046 0-2 0.8954-2 2v1 1h20v-1-1c0-1.1046-0.895-2-2-2h-4-8-4z" transform="translate(0 1028.4)" fill="#7521ca"/> <g fill="#ffffff"> <rect height="2" width="14" y="1034.4" x="5"/> <rect height="2" width="14" y="1038.4" x="5"/> <rect height="2" width="9" y="1042.4" x="5"/> </g> </g> </g>
</svg>